<?xml version="1.0" encoding="utf-8"?>
<!-- Generator: Adobe Illustrator 23.0.2, SVG Export Plug-In . SVG Version: 6.00 Build 0)  -->
<svg version="1.1" id="Layer_1" xmlns="http://www.w3.org/2000/svg" xmlns:xlink="http://www.w3.org/1999/xlink" x="0px" y="0px"
	 viewBox="0 0 48 48" style="enable-background:new 0 0 48 48;" xml:space="preserve">
<style type="text/css">
	.st0{fill:#1D1D1B;}
	.st1{fill:none;stroke:#1D1D1B;stroke-width:0.2;stroke-miterlimit:10;}
	.st2{fill:none;stroke:#1D1D1B;stroke-width:3;stroke-miterlimit:10;}
</style>
<g id="Layer_5">
	<circle class="st0" cx="9.1" cy="8.9" r="4.7"/>
	<circle class="st0" cx="38.8" cy="38.7" r="4.7"/>
	<path class="st1" d="M4.2,37"/>
	<path class="st2" d="M24,8.9h10.2c2.8,0,5,2.2,5,5v22.3"/>
	<path class="st2" d="M24.1,39.2H13.9c-2.8,0-5-2.2-5-5V11.9"/>
	<path class="st0" d="M29.4,38.4l-6.6-3.8c-0.7-0.4-1.5,0.1-1.5,0.9V43c0,0.8,0.8,1.2,1.5,0.9l6.6-3.8
		C30.1,39.7,30.1,38.7,29.4,38.4z"/>
	<path class="st0" d="M19.2,9.8l6.6,3.8c0.7,0.4,1.5-0.1,1.5-0.9V5.1c0-0.8-0.8-1.2-1.5-0.9L19.2,8C18.5,8.4,18.5,9.4,19.2,9.8z"/>
</g>
</svg>
