<?xml version="1.0" encoding="utf-8"?>
<!-- Generator: Adobe Illustrator 23.0.2, SVG Export Plug-In . SVG Version: 6.00 Build 0)  -->
<svg version="1.1" id="Layer_1" xmlns="http://www.w3.org/2000/svg" xmlns:xlink="http://www.w3.org/1999/xlink" x="0px" y="0px"
	 viewBox="0 0 48 48" style="enable-background:new 0 0 48 48;" xml:space="preserve">
<style type="text/css">
	.st0{fill:#1D1D1B;}
</style>
<g id="Layer_5">
	<path class="st0" d="M22.5,28h-7.1c-1.1,0-2-0.9-2-2V19c0-1.1,0.9-2,2-2h7.1c1.1,0,2,0.9,2,2v7.1C24.5,27.2,23.6,28,22.5,28z"/>
	<path class="st0" d="M42.9,30.3h-4.4v3.5c0,1.1-0.9,2-2,2h-7.1c-1.1,0-2-0.9-2-2v-3.5H5.1c-1.1,0-2,0.9-2,2v10.5c0,1.1,0.9,2,2,2
		h37.9c1.1,0,2-0.9,2-2V32.3C45,31.2,44,30.3,42.9,30.3z"/>
	<path class="st0" d="M36.5,20.3h-7.1c-1.1,0-2-0.9-2-2v-7.1c0-1.1,0.9-2,2-2h7.1c1.1,0,2,0.9,2,2v7.1
		C38.5,19.4,37.6,20.3,36.5,20.3z"/>
	<path class="st0" d="M27.5,30.3v-3.5c0-1.1,0.9-2,2-2h7.1c1.1,0,2,0.9,2,2v3.5"/>
	<path class="st0" d="M18.8,14h-7.1c-1.1,0-2-0.9-2-2V4.9c0-1.1,0.9-2,2-2h7.1c1.1,0,2,0.9,2,2V12C20.7,13.1,19.9,14,18.8,14z"/>
</g>
</svg>
