<?xml version="1.0" encoding="utf-8"?>
<!-- Generator: Adobe Illustrator 23.0.2, SVG Export Plug-In . SVG Version: 6.00 Build 0)  -->
<svg version="1.1" id="Layer_1" xmlns="http://www.w3.org/2000/svg" xmlns:xlink="http://www.w3.org/1999/xlink" x="0px" y="0px"
	 viewBox="0 0 48 48" style="enable-background:new 0 0 48 48;" xml:space="preserve">
<g id="Layer_3">
	<g>
		<path d="M26.5,14.4c2.8,0,5.1,0.7,6.9,2.2c1.8,1.5,2.7,3.3,2.7,5.5c0,1.4-0.4,2.6-1.1,3.7c-0.7,1.1-1.8,1.9-3.2,2.6v0.3
			c2.1,0.5,3.8,1.4,5,2.9c1.2,1.4,1.8,3.1,1.8,5c0,1.7-0.4,3.2-1.3,4.6c-0.9,1.3-2.1,2.4-3.6,3c-1.5,0.7-3.4,1-5.5,1h-7.8
			c-2.8,0-5.1-2.3-5.1-5.1V17.9c0-1.9,1.6-3.5,3.5-3.5H26.5z M24.9,27.1c1.6,0,2.8-0.4,3.7-1.1c0.9-0.7,1.4-1.8,1.4-3.1
			c0-1.2-0.4-2.1-1.3-2.8c-0.8-0.7-1.9-1-3.3-1h-2.6c-0.9,0-1.6,0.7-1.6,1.6v4.9c0,0.9,0.7,1.6,1.6,1.6h2.1
			C24.9,27.2,24.9,27.1,24.9,27.1z M26.3,40.5c2,0,3.5-0.4,4.6-1.1c1-0.8,1.5-1.9,1.5-3.3c0-1.3-0.5-2.3-1.5-3.1s-2.4-1.1-4.1-1.1
			h-4c-0.9,0-1.6,0.7-1.6,1.6v5.4c0,0.9,0.7,1.6,1.6,1.6C22.8,40.5,26.3,40.5,26.3,40.5z"/>
	</g>
	<g>
		<path d="M20.2,25v-4.3c0-1.4,1.2-2.6,2.6-2.6h2.6c0.4,0,0.9,0,1.3,0.1c0.3-0.3,0.5-0.6,0.7-0.9c0.4-0.5,0.7-1.1,0.9-1.8
			c-0.6-0.1-1.2-0.1-1.8-0.1H21c-0.3,0.9-0.7,1.6-1.4,2.2c-0.9,0.7-2,1.2-3.4,1.3v5.8h1.1C18.4,24.6,19.4,24.8,20.2,25z"/>
		<path d="M21.2,40.9c-0.6-0.5-1-1.2-1-2.1v-3.9c-1,0.3-2.1,0.4-3.4,0.4h-0.5V40c0,0.4,0.1,0.7,0.1,1H19C19.8,41,20.5,41,21.2,40.9z
			"/>
		<path d="M14.3,40v-4.7h-1.8c-1.1,0-2-0.9-2-2v-6.7c0-1.1,0.9-2,2-2h1.8v-5.7h-1.8c-1.1,0-2-0.9-2-2v-6c0-1.1,0.9-2,2-2h3.3
			c1.7,0,3,0.4,4.1,1.3c1,0.8,1.4,1.9,1.5,3.2h5.2c0.8,0,1.5,0.1,2.2,0.2c0-0.3,0.1-0.6,0.1-0.8c0-2.7-1.1-5-3.3-6.8s-5-2.7-8.5-2.7
			H7.5c-2.4,0-4.3,1.9-4.3,4.3v27.3C3.2,38.2,6,41,9.4,41h4.9C14.3,40.7,14.3,40.4,14.3,40z"/>
		<path d="M30.7,29.4v-1.7l0.6-0.3l0,0c-0.2-0.7-0.5-1.4-0.9-2c-0.3,0.5-0.6,1-1.1,1.4c-1.1,0.9-2.6,1.3-4.4,1.3H24
			c0.2,0.5,0.3,1.1,0.3,1.7c0,0.3,0,0.6-0.1,0.9h2.6c1.9,0,3.5,0.4,4.7,1.3c0.1,0,0.1,0.1,0.2,0.1c0.1-0.6,0.2-1.2,0.2-1.8
			c0-0.3,0-0.5,0-0.8c-0.1,0-0.2-0.1-0.3-0.1H30.7z"/>
	</g>
</g>
</svg>
