<?xml version="1.0" encoding="utf-8"?>
<!-- Generator: Adobe Illustrator 23.0.2, SVG Export Plug-In . SVG Version: 6.00 Build 0)  -->
<svg version="1.1" id="Layer_1" xmlns="http://www.w3.org/2000/svg" xmlns:xlink="http://www.w3.org/1999/xlink" x="0px" y="0px"
	 viewBox="0 0 48 48" style="enable-background:new 0 0 48 48;" xml:space="preserve">
<g id="Layer_3">
	<g>
		<path d="M25.3,5.3c3.5,0,6.3,0.9,8.5,2.7c2.2,1.8,3.3,4.1,3.3,6.8c0,1.7-0.5,3.3-1.4,4.6s-2.2,2.4-4,3.1v0.3
			c2.6,0.6,4.7,1.8,6.2,3.5c1.5,1.8,2.2,3.8,2.2,6.2c0,2.1-0.5,4-1.6,5.6C37.4,39.8,36,41,34,41.9s-4.1,1.2-6.7,1.2h-9.6
			c-3.5,0-6.3-2.8-6.3-6.3V9.6c0-2.4,1.9-4.3,4.3-4.3C15.8,5.3,25.3,5.3,25.3,5.3z M23.4,21c1.9,0,3.5-0.5,4.6-1.4s1.7-2.2,1.7-3.9
			c0-1.5-0.5-2.6-1.5-3.5c-1-0.9-2.4-1.3-4.1-1.3h-3.2c-1.1,0-2,0.9-2,2v6c0,1.1,0.9,2,2,2H23.4z M25.1,37.4c2.5,0,4.3-0.5,5.6-1.4
			c1.3-0.9,1.9-2.3,1.9-4.1c0-1.6-0.6-2.9-1.9-3.8s-2.9-1.4-5.1-1.4h-4.9c-1.1,0-2,0.9-2,2v6.7c0,1.1,0.9,2,2,2L25.1,37.4L25.1,37.4
			z"/>
	</g>
</g>
</svg>
