<?xml version="1.0" encoding="utf-8"?>
<!-- Generator: Adobe Illustrator 23.0.2, SVG Export Plug-In . SVG Version: 6.00 Build 0)  -->
<svg version="1.1" id="Layer_1" xmlns="http://www.w3.org/2000/svg" xmlns:xlink="http://www.w3.org/1999/xlink" x="0px" y="0px"
	 viewBox="0 0 48 48" style="enable-background:new 0 0 48 48;" xml:space="preserve">
<style type="text/css">
	.st0{display:none;}
	.st1{display:inline;fill:none;}
	.st2{display:inline;}
	.st3{fill:none;}
</style>
<path d="M43.4,12.9l-7.9,24.4c-1.2,3.7-4.6,6.1-8.5,6.2L8.4,43.2c-1.1,0-2-0.9-2-2c0-1.1,0.9-2,2-2l18.6,0.3c2.1,0,4-1.4,4.7-3.4
	l9.8-30.5C40.9,4.6,39.8,4,38.5,4L19.6,3.8c-3.2,0-6.1,2.1-7.2,5.1L3.3,35.3c-1.7,5,2,10.2,7.3,10.1L30,45.3c3.3,0,6.2-2.2,7.2-5.3
	L44,18.8C44.6,16.9,44.4,14.7,43.4,12.9z M17.9,9.1h17.7c0.8,0,1.5,0.7,1.5,1.5c0,0.8-0.7,1.5-1.5,1.5H17.9c-0.8,0-1.5-0.7-1.5-1.5
	C16.4,9.8,17.1,9.1,17.9,9.1z M15.4,15.6h17.7c0.8,0,1.5,0.7,1.5,1.5c0,0.8-0.7,1.5-1.5,1.5H15.4c-0.8,0-1.5-0.7-1.5-1.5
	C13.9,16.3,14.5,15.6,15.4,15.6z"/>
<g id="Layer_4" class="st0">
	<line class="st1" x1="18.2" y1="10" x2="35.9" y2="10"/>
	<g class="st2">
		<line class="st3" x1="15.6" y1="16.5" x2="33.3" y2="16.5"/>
		<path d="M35.8,36.7c-1.2,3.7-4.6,6.1-8.5,6.2L8.8,42.6c-1,0-2-0.7-2.1-1.8c-0.1-1.2,0.8-2.3,2-2.2l18.6,0.3c2.1,0,4-1.4,4.7-3.4
			l9.2-28.5c0.5-1.7-0.6-3.5-2.4-3.5c0,0,0,0,0,0L19.9,3.2c-3.2,0-6.1,2.1-7.1,5.1L3.6,34.6c-1.7,5,2,10.3,7.3,10.2l19.3-0.2
			c3.3,0,6.2-2.2,7.2-5.3l6.7-21.1c0.6-1.9,0.4-4-0.5-5.7c0-0.1-0.1-0.1-0.1,0L35.8,36.7z M18.2,8.5h17.7c0.8,0,1.5,0.7,1.5,1.5
			s-0.7,1.5-1.5,1.5H18.2c-0.8,0-1.5-0.7-1.5-1.5S17.3,8.5,18.2,8.5z M15.6,15h17.7c0.8,0,1.5,0.7,1.5,1.5c0,0.8-0.7,1.5-1.5,1.5
			H15.6c-0.8,0-1.5-0.7-1.5-1.5S14.8,15,15.6,15z"/>
	</g>
</g>
</svg>
