<?xml version="1.0" encoding="utf-8"?>
<!-- Generator: Adobe Illustrator 23.0.2, SVG Export Plug-In . SVG Version: 6.00 Build 0)  -->
<svg version="1.1" xmlns="http://www.w3.org/2000/svg" xmlns:xlink="http://www.w3.org/1999/xlink" x="0px" y="0px"
	 viewBox="0 0 48 48" style="enable-background:new 0 0 48 48;" xml:space="preserve">
<style type="text/css">
	.st0{display:none;}
	.st1{fill:#FFFFFF;}
	.st2{display:inline;fill:#FFFFFF;}
	.st3{display:inline;}
</style>
<g id="Layer_2" class="st0">
</g>
<g id="Layer_3">
	<path d="M12.46,8.92L3.29,35.35c-1.73,4.98,2,10.16,7.27,10.11l19.48-0.2c3.28-0.03,6.17-2.17,7.17-5.3l6.75-21.13
		c0.63-1.98,0.43-4.14-0.57-5.97l-1.01-5.64c-0.33-1.86-1.94-3.21-3.83-3.23L19.62,3.81C16.39,3.82,13.52,5.87,12.46,8.92z"/>
	<g>
		<g>
			<path class="st1" d="M27.09,43.44L8.43,43.19c-1.1-0.02-1.99-0.92-1.97-2.03c0.02-1.1,0.9-1.98,2.03-1.97l18.62,0.26
				c2.09-0.02,3.97-1.38,4.66-3.4L41.91,4.58c0.34-1.05,1.46-1.63,2.52-1.29c1.05,0.34,1.63,1.47,1.29,2.52L35.56,37.29
				C34.33,40.95,30.93,43.41,27.09,43.44z"/>
		</g>
	</g>
	<g>
		<line class="st1" x1="17.91" y1="10.61" x2="35.64" y2="10.61"/>
		<path class="st1" d="M35.64,12.11H17.91c-0.83,0-1.5-0.67-1.5-1.5s0.67-1.5,1.5-1.5h17.73c0.83,0,1.5,0.67,1.5,1.5
			S36.47,12.11,35.64,12.11z"/>
	</g>
	<g>
		<line class="st1" x1="15.36" y1="17.09" x2="33.09" y2="17.09"/>
		<path class="st1" d="M33.09,18.59H15.36c-0.83,0-1.5-0.67-1.5-1.5s0.67-1.5,1.5-1.5h17.73c0.83,0,1.5,0.67,1.5,1.5
			S33.92,18.59,33.09,18.59z"/>
	</g>
</g>
<g id="Layer_4" class="st0">
	<line class="st2" x1="18.16" y1="9.98" x2="35.89" y2="9.98"/>
	<g class="st3">
		<line class="st1" x1="15.61" y1="16.46" x2="33.34" y2="16.46"/>
		<path d="M35.81,36.67c-1.23,3.66-4.63,6.12-8.47,6.15L8.82,42.56c-1.03-0.01-1.98-0.73-2.1-1.75c-0.14-1.23,0.8-2.26,2.01-2.25
			l18.62,0.26c2.09-0.02,3.97-1.38,4.66-3.4l9.21-28.53c0.54-1.67-0.63-3.49-2.38-3.52c-0.01,0-0.02,0-0.04,0L19.87,3.18
			c-3.23,0.02-6.09,2.07-7.15,5.12L3.57,34.63c-1.74,5.03,2.02,10.26,7.34,10.21l19.32-0.2c3.31-0.03,6.23-2.19,7.24-5.35
			l6.73-21.08c0.61-1.9,0.44-3.96-0.45-5.73c-0.03-0.06-0.12-0.05-0.14,0.01L35.81,36.67z M18.16,8.48h17.73
			c0.83,0,1.5,0.67,1.5,1.5s-0.67,1.5-1.5,1.5H18.16c-0.83,0-1.5-0.67-1.5-1.5S17.33,8.48,18.16,8.48z M15.61,14.96h17.73
			c0.83,0,1.5,0.67,1.5,1.5s-0.67,1.5-1.5,1.5H15.61c-0.83,0-1.5-0.67-1.5-1.5S14.78,14.96,15.61,14.96z"/>
	</g>
</g>
</svg>
