<?xml version="1.0" encoding="utf-8"?>
<!-- Generator: Adobe Illustrator 23.0.2, SVG Export Plug-In . SVG Version: 6.00 Build 0)  -->
<svg version="1.1" id="Layer_1" xmlns="http://www.w3.org/2000/svg" xmlns:xlink="http://www.w3.org/1999/xlink" x="0px" y="0px"
	 viewBox="0 0 48 48" style="enable-background:new 0 0 48 48;" xml:space="preserve">
<style type="text/css">
	.st0{fill:none;stroke:#1D1D1B;stroke-width:5;stroke-miterlimit:10;}
	.st1{fill:#1D1D1B;}
</style>
<g id="Layer_3">
	<line class="st0" x1="24.1" y1="0" x2="24.1" y2="12.9"/>
	<g>
		<path class="st1" d="M15.3,27.2c-1.6-1.9-2.5-4.3-2.6-6.8c-0.2-6.2,4.7-11.6,10.9-11.8c6.5-0.3,11.9,4.9,11.9,11.4
			c0,2.4-0.9,5-2.5,7.1c-0.4,0.5-1,0.5-1.5,0.1l-2.2-2c-0.4-0.3-0.4-0.9-0.1-1.3c0.9-1.2,1.4-2.6,1.4-3.9c0-3.6-2.9-6.4-6.5-6.4
			c-3.5,0.1-6.4,3.1-6.3,6.7c0.1,1.3,0.5,2.6,1.3,3.6c0.3,0.4,0.3,1-0.1,1.3l-2.1,2.1C16.4,27.7,15.7,27.6,15.3,27.2z"/>
	</g>
	<path class="st1" d="M36.9,44.8H11.5c-1.1,0-2.1-0.9-2.1-2.1v-4.3c0-1.1,0.9-2.1,2.1-2.1h25.4c1.1,0,2.1,0.9,2.1,2.1v4.3
		C39,43.8,38,44.8,36.9,44.8z"/>
	<path class="st1" d="M26.9,33.6h-5.4c-1.1,0-2.1-0.9-2.1-2.1v-3.3c0-1.1,0.9-2.1,2.1-2.1h5.4c1.1,0,2.1,0.9,2.1,2.1v3.3
		C29,32.7,28.1,33.6,26.9,33.6z"/>
</g>
</svg>
