<?xml version="1.0" encoding="utf-8"?>
<!-- Generator: Adobe Illustrator 23.0.2, SVG Export Plug-In . SVG Version: 6.00 Build 0)  -->
<svg version="1.1" id="Layer_1" xmlns="http://www.w3.org/2000/svg" xmlns:xlink="http://www.w3.org/1999/xlink" x="0px" y="0px"
	 viewBox="0 0 48 48" style="enable-background:new 0 0 48 48;" xml:space="preserve">
<g id="Layer_3">
	<g>
		<g>
			<path d="M1.4,46c0.6-1.7,1-3,1.5-4.4c0.8-2.1,1.5-4.2,2.2-6.4c0.2-0.5,0-1.1-0.2-1.6c-2.5-5.4-3-10.9-1-16.4
				c2.9-8,8.7-12.8,17.1-13.9c9.2-1.2,16.4,2.4,21.1,10.3c3.6,6.1,3.9,12.6,1.1,19c-3.2,7.3-9,11.4-16.8,12.5c-4,0.5-7.9,0-11.4-1.8
				c-1.3-0.7-2.4-0.7-3.8-0.3C8.1,44,4.9,44.9,1.4,46z M5,42.6c2.6-0.8,5-1.4,7.4-2.2c0.8-0.3,1.4-0.2,2.1,0.2
				c3.6,2.2,7.7,2.9,11.8,2.3c9.6-1.3,16.8-9.8,16.4-19.4c-0.3-7-4.7-13.9-11.6-16.7c-8-3.3-16.5-1.1-22,5.7
				c-4.6,5.7-5.6,14.1-2.1,20.2c0.7,1.3,0.7,2.3,0.2,3.6C6.5,38.2,5.8,40.3,5,42.6z"/>
		</g>
	</g>
	<g>
		<g>
			<path d="M30.3,33c0.1-0.2,0.3-0.5,0.4-0.7c0.5-1,1-1.9,1.1-3c0,0,0,0,0-0.1c0.1-0.7,0-0.8-0.6-0.8c-2.2,0-4.2-1.5-4.8-3.5
				c-0.7-2.3,0.6-4.7,2.9-5.6c2.3-0.8,4.8,0,6.1,2c0.6,0.9,0.7,1.8,0.6,2.9c-0.2,2.3-1.3,4.2-2.7,6c-0.8,1-1.6,1.8-2.6,2.6
				C30.6,32.9,30.5,33,30.3,33C30.3,33,30.3,33,30.3,33z"/>
			<path d="M16.6,32.6c0-0.1,0.1-0.2,0.1-0.2c0.5-1,1.1-2,1.3-3.1c0.1-0.3,0.1-0.5,0.1-0.8c0-0.4,0-0.4-0.4-0.4
				c-1.1,0-2.2-0.2-3.1-0.9c-1.6-1.1-2.3-2.6-2-4.5c0.3-1.8,1.4-3,3.1-3.6c1.9-0.7,4.1-0.1,5.5,1.4c1.2,1.3,1.4,2.9,1,4.5
				c-0.4,1.9-1.4,3.5-2.5,5c-0.8,1-1.6,1.8-2.6,2.5C16.9,32.5,16.8,32.6,16.6,32.6C16.6,32.7,16.6,32.7,16.6,32.6z"/>
		</g>
	</g>
</g>
</svg>
