<?xml version="1.0" encoding="utf-8"?>
<!-- Generator: Adobe Illustrator 23.0.2, SVG Export Plug-In . SVG Version: 6.00 Build 0)  -->
<svg version="1.1" id="Layer_1" xmlns="http://www.w3.org/2000/svg" xmlns:xlink="http://www.w3.org/1999/xlink" x="0px" y="0px"
	 viewBox="0 0 48 48" style="enable-background:new 0 0 48 48;" xml:space="preserve">
<g id="Layer_3">
	<path d="M25.1,28.4v13.4c0,2.1,2.5,3.4,4.4,2.3L43.2,37c0.9-0.5,1.5-1.4,1.5-2.3V20c0-2.1-2.5-3.4-4.4-2.3l-12.7,6.8
		C26,25.3,25.1,26.8,25.1,28.4z"/>
	<path d="M3.4,19.9v14.8c0,1,0.6,1.9,1.5,2.4l13.8,7.2c2,1,4.4-0.3,4.4-2.4V28.4c0-1.6-0.9-3.1-2.4-3.9L7.8,17.5
		C5.9,16.5,3.4,17.8,3.4,19.9z"/>
	<path d="M21.5,3.7l-13,7.2c-2,1.1-2,3.9,0,5l13.1,7.3c1.6,0.9,3.5,0.9,5,0l12.9-7.3c2-1.1,2-3.9,0-5l-13-7.2
		C25,2.8,23,2.8,21.5,3.7z"/>
</g>
</svg>
