<?xml version="1.0" encoding="utf-8"?>
<!-- Generator: Adobe Illustrator 23.0.2, SVG Export Plug-In . SVG Version: 6.00 Build 0)  -->
<svg version="1.1" id="Layer_1" xmlns="http://www.w3.org/2000/svg" xmlns:xlink="http://www.w3.org/1999/xlink" x="0px" y="0px"
	 viewBox="0 0 48 48" style="enable-background:new 0 0 48 48;" xml:space="preserve">
<style type="text/css">
	.st0{fill:#1D1D1B;}
	.st1{display:none;fill:none;stroke:#1D1D1B;stroke-width:4;stroke-miterlimit:10;}
</style>
<g id="Layer_3">
	<g>
		<path class="st0" d="M35.2,24.7v12.9c0,0.7-0.5,1.2-1.2,1.2H6.4c-0.7,0-1.2-0.5-1.2-1.2V9.9c0-0.7,0.6-1.2,1.2-1.2H34
			c0.7,0,1.2,0.6,1.2,1.2l0,0c0,1.1,1.3,1.6,2.1,0.9l1.5-1.5C38.9,9.2,39,9.1,39.2,9V6.7c0-1.1-0.9-2-2-2h-34c-1.1,0-2,0.9-2,2v34.1
			c0,1.1,0.9,2,2,2h34c1.1,0,2-0.9,2-2V23.2c0-1.1-1.3-1.6-2.1-0.9l-1.6,1.5C35.3,24.1,35.2,24.4,35.2,24.7z"/>
		<path class="st0" d="M37.1,13.8l-1.6,1.5c-0.2,0.2-0.4,0.5-0.4,0.9v2.3c0,1.1,1.3,1.6,2.1,0.9l1.6-1.5c0.2-0.2,0.4-0.5,0.4-0.9
			v-2.3C39.2,13.6,37.9,13,37.1,13.8z"/>
	</g>
	<rect x="6.1" y="25.7" class="st1" width="34" height="34.1"/>
	<path class="st0" d="M39.5,10L24.1,25.1l-6.6-5.9c-1.2-1.1-3.1-1-4.2,0.2l0,0c-1.1,1.2-1,3.1,0.2,4.2l10,9.1c0.5,0.4,1.2,0.4,1.6,0
		l18.6-18.3c1.1-1.1,1.2-2.9,0.1-4.1l-0.1-0.1C42.7,8.9,40.7,8.8,39.5,10z"/>
</g>
</svg>
