<?xml version="1.0" encoding="utf-8"?>
<!-- Generator: Adobe Illustrator 23.0.2, SVG Export Plug-In . SVG Version: 6.00 Build 0)  -->
<svg version="1.1" id="Layer_1" xmlns="http://www.w3.org/2000/svg" xmlns:xlink="http://www.w3.org/1999/xlink" x="0px" y="0px"
	 viewBox="0 0 48 48" style="enable-background:new 0 0 48 48;" xml:space="preserve">
<style type="text/css">
	.st0{fill:#1D1D1B;stroke:#1D1D1B;stroke-miterlimit:10;}
	.st1{fill:#1D1D1B;}
</style>
<g id="Layer_3">
	<path class="st0" d="M25.4,23.9l-8.8-5.1c-0.5-0.3-0.6-0.9-0.4-1.4l5.1-8.8c0.3-0.5,0.9-0.6,1.4-0.4l8.8,5.1
		c0.5,0.3,0.6,0.9,0.4,1.4l-5.1,8.8C26.5,24,25.8,24.1,25.4,23.9z"/>
	<path class="st1" d="M30.1,21.6v10.2c0,0.5-0.5,1-1,1H18.9c-0.5,0-1-0.5-1-1V21.6c0-0.5-0.5-1-1-1H6.7c-0.6,0-1,0.5-1,1v11.1v0
		v11.1c0,0.5,0.4,1,1,1h11.2h12.2h11.2c0.5,0,1-0.5,1-1V32.7V21.6c0-0.5-0.5-1-1-1H31.1C30.5,20.6,30.1,21,30.1,21.6z"/>
</g>
</svg>
