<?xml version="1.0" encoding="utf-8"?>
<!-- Generator: Adobe Illustrator 23.0.2, SVG Export Plug-In . SVG Version: 6.00 Build 0)  -->
<svg version="1.1" id="Layer_1" xmlns="http://www.w3.org/2000/svg" xmlns:xlink="http://www.w3.org/1999/xlink" x="0px" y="0px"
	 viewBox="0 0 48 48" style="enable-background:new 0 0 48 48;" xml:space="preserve">
<style type="text/css">
	.st0{fill:none;stroke:#1D1D1B;stroke-width:2;stroke-miterlimit:10;}
	.st1{fill:#1D1D1B;}
	.st2{fill:none;stroke:#1D1D1B;stroke-width:2;stroke-linecap:round;stroke-miterlimit:10;}
</style>
<g id="Layer_5">
	<path class="st0" d="M36.3,44.8H11.8c-1.4,0-2.5-1.1-2.5-2.5V11.6c0-1.4,1.1-2.5,2.5-2.5h24.5c1.4,0,2.5,1.1,2.5,2.5v30.7
		C38.8,43.6,37.7,44.8,36.3,44.8z"/>
	<path class="st0" d="M8.6,41.7c-1.4,0-2.5-1.1-2.5-2.5V8.5C6.1,7.1,7.2,6,8.6,6h24.5c1.4,0,2.5,1.1,2.5,2.5"/>
	<path class="st0" d="M5.5,38.7c-1.4,0-2.5-1.1-2.5-2.5V5.5C3,4.1,4.2,3,5.5,3h24.5c1.4,0,2.5,1.1,2.5,2.5"/>
	<circle class="st1" cx="15.1" cy="20.6" r="1.8"/>
	<line class="st2" x1="18.8" y1="20.6" x2="33.1" y2="20.6"/>
	<circle class="st1" cx="14.9" cy="27.7" r="1.8"/>
	<line class="st2" x1="18.6" y1="27.7" x2="32.9" y2="27.7"/>
	<circle class="st1" cx="15.1" cy="35.4" r="1.8"/>
	<line class="st2" x1="18.8" y1="35.4" x2="33.1" y2="35.4"/>
</g>
</svg>
