<?xml version="1.0" encoding="utf-8"?>
<!-- Generator: Adobe Illustrator 23.0.2, SVG Export Plug-In . SVG Version: 6.00 Build 0)  -->
<svg version="1.1" id="Layer_1" xmlns="http://www.w3.org/2000/svg" xmlns:xlink="http://www.w3.org/1999/xlink" x="0px" y="0px"
	 viewBox="0 0 48 48" style="enable-background:new 0 0 48 48;" xml:space="preserve">
<style type="text/css">
	.st0{display:none;}
	.st1{display:inline;fill:#1D1D1B;}
	.st2{display:inline;}
	.st3{fill:#1D1D1B;}
	.st4{fill:none;stroke:#1D1D1B;stroke-width:2;stroke-miterlimit:10;}
	.st5{display:none;fill:#1D1D1B;}
</style>
<g id="Layer_5" class="st0">
	<path class="st1" d="M26.9,15.8h-4.6c-0.4,0-0.7,0.2-0.9,0.5l-2.3,4c-0.2,0.3-0.2,0.7,0,1l2.3,4c0.2,0.3,0.5,0.5,0.9,0.5h4.6
		c0.4,0,0.7-0.2,0.9-0.5l2.3-4c0.2-0.3,0.2-0.7,0-1l-2.3-4C27.6,16,27.3,15.8,26.9,15.8z"/>
	<path class="st1" d="M17.7,20.8h-4.6c-0.4,0-0.7,0.2-0.9,0.5l-2.3,4c-0.2,0.3-0.2,0.7,0,1l2.3,4c0.2,0.3,0.5,0.5,0.9,0.5h4.6
		c0.4,0,0.7-0.2,0.9-0.5l2.3-4c0.2-0.3,0.2-0.7,0-1l-2.3-4C18.4,21,18.1,20.8,17.7,20.8z"/>
	<path class="st1" d="M36.5,20.8h-4.6c-0.4,0-0.7,0.2-0.9,0.5l-2.3,4c-0.2,0.3-0.2,0.7,0,1l2.3,4c0.2,0.3,0.5,0.5,0.9,0.5h4.6
		c0.4,0,0.7-0.2,0.9-0.5l2.3-4c0.2-0.3,0.2-0.7,0-1l-2.3-4C37.1,21,36.8,20.8,36.5,20.8z"/>
	<g class="st2">
		<path class="st3" d="M18.1,20.1h-5.4c-0.2,0-0.5-0.1-0.6-0.3l-2.7-4.7c-0.1-0.2-0.1-0.5,0-0.7l2.7-4.7c0.1-0.2,0.4-0.3,0.6-0.3
			h5.4c0.2,0,0.5,0.1,0.6,0.3l2.7,4.7c0.1,0.2,0.1,0.5,0,0.7l-2.7,4.7C18.5,20,18.3,20.1,18.1,20.1z M13.1,19.5h4.6
			c0.2,0,0.5-0.1,0.6-0.3l2.3-4c0.1-0.2,0.1-0.5,0-0.7l-2.3-4c-0.1-0.2-0.4-0.3-0.6-0.3h-4.6c-0.2,0-0.5,0.1-0.6,0.3l-2.3,4
			c-0.1,0.2-0.1,0.5,0,0.7l2.3,4C12.6,19.3,12.8,19.5,13.1,19.5z"/>
	</g>
	<g class="st2">
		<path class="st3" d="M27.4,37.1H22c-0.2,0-0.5-0.1-0.6-0.3l-2.7-4.7c-0.1-0.2-0.1-0.5,0-0.7l2.7-4.7c0.1-0.2,0.4-0.3,0.6-0.3h5.4
			c0.2,0,0.5,0.1,0.6,0.3l2.7,4.7c0.1,0.2,0.1,0.5,0,0.7L28,36.7C27.9,36.9,27.7,37.1,27.4,37.1z M22.4,36.4H27
			c0.2,0,0.5-0.1,0.6-0.3l2.3-4c0.1-0.2,0.1-0.5,0-0.7l-2.3-4C27.5,27.2,27.2,27,27,27h-4.6c-0.2,0-0.5,0.1-0.6,0.3l-2.3,4
			c-0.1,0.2-0.1,0.5,0,0.7l2.3,4C21.9,36.2,22.2,36.4,22.4,36.4z"/>
	</g>
</g>
<g id="Layer_6">
	<path class="st4" d="M42,44.9H6c-1.7,0-3-1.3-3-3V5.9c0-1.7,1.3-3,3-3H42c1.7,0,3,1.3,3,3v35.9C45,43.5,43.6,44.9,42,44.9z"/>
	<path class="st3" d="M15,15.6H7.4c-0.8,0-1.5-0.7-1.5-1.5V6.5C5.9,5.7,6.6,5,7.4,5H15c0.8,0,1.5,0.7,1.5,1.5v7.6
		C16.5,14.9,15.8,15.6,15,15.6z"/>
	<path class="st3" d="M15.1,28.8H7.3c-0.8,0-1.5-0.7-1.5-1.5v-7.8c0-0.8,0.7-1.5,1.5-1.5h7.8c0.8,0,1.5,0.7,1.5,1.5v7.8
		C16.6,28.1,15.9,28.8,15.1,28.8z"/>
	<path class="st3" d="M15.1,41.9H7.3c-0.8,0-1.5-0.7-1.5-1.5v-7.8c0-0.8,0.7-1.5,1.5-1.5h7.8c0.8,0,1.5,0.7,1.5,1.5v7.8
		C16.6,41.2,15.9,41.9,15.1,41.9z"/>
	<path class="st5" d="M27.7,15.6h-7.6c-0.8,0-1.5-0.7-1.5-1.5V6.5c0-0.8,0.7-1.5,1.5-1.5h7.6c0.8,0,1.5,0.7,1.5,1.5v7.6
		C29.2,14.9,28.5,15.6,27.7,15.6z"/>
	<path class="st5" d="M40.8,15.6h-7.6c-0.8,0-1.5-0.7-1.5-1.5V6.5c0-0.8,0.7-1.5,1.5-1.5h7.6c0.8,0,1.5,0.7,1.5,1.5v7.6
		C42.3,14.9,41.6,15.6,40.8,15.6z"/>
</g>
</svg>
