<?xml version="1.0" encoding="utf-8"?>
<!-- Generator: Adobe Illustrator 23.0.2, SVG Export Plug-In . SVG Version: 6.00 Build 0)  -->
<svg version="1.1" id="Layer_1" xmlns="http://www.w3.org/2000/svg" xmlns:xlink="http://www.w3.org/1999/xlink" x="0px" y="0px"
	 viewBox="0 0 48 48" style="enable-background:new 0 0 48 48;" xml:space="preserve">
<style type="text/css">
	.st0{fill:none;stroke:#1D1D1B;stroke-width:3;stroke-linecap:round;stroke-linejoin:round;stroke-miterlimit:10;}
	.st1{fill:none;stroke:#1D1D1B;stroke-width:3;stroke-linecap:round;stroke-miterlimit:10;}
	.st2{fill:#1D1D1B;}
</style>
<g id="Layer_5">
	<path class="st0" d="M12.9,16.5v22.2c0,1.1,1,2,2.2,2h18.3c1.2,0,2.2-0.9,2.2-2V16.5"/>
	<line class="st1" x1="9.1" y1="11.2" x2="39.2" y2="11.2"/>
	<path class="st2" d="M28.2,7H20c-0.8,0-1.4,0.6-1.4,1.4v1.7c0,0.8,0.6,1.4,1.4,1.4h8.2c0.8,0,1.4-0.6,1.4-1.4V8.4
		C29.7,7.6,29,7,28.2,7z"/>
	<line class="st0" x1="20.5" y1="17" x2="20.5" y2="35.6"/>
	<line class="st0" x1="27.8" y1="17" x2="27.8" y2="35.6"/>
</g>
</svg>
