<?xml version="1.0" encoding="utf-8"?>
<!-- Generator: Adobe Illustrator 23.0.2, SVG Export Plug-In . SVG Version: 6.00 Build 0)  -->
<svg version="1.1" id="Layer_1" xmlns="http://www.w3.org/2000/svg" xmlns:xlink="http://www.w3.org/1999/xlink" x="0px" y="0px"
	 viewBox="0 0 48 48" style="enable-background:new 0 0 48 48;" xml:space="preserve">
<style type="text/css">
	.st0{fill:none;stroke:#1D1D1B;stroke-width:2;stroke-miterlimit:10;}
	.st1{fill:none;stroke:#1D1D1B;stroke-width:0.2;stroke-miterlimit:10;}
	.st2{fill:#1D1D1B;stroke:#1D1D1B;stroke-miterlimit:10;}
</style>
<g id="Layer_5">
	<path class="st0" d="M41.1,44.8H7c-2.2,0-4-1.8-4-4V6.9c0-2.2,1.8-4,4-4h34.1c2.2,0,4,1.8,4,4v33.8C45.1,43,43.3,44.8,41.1,44.8z"
		/>
	<path class="st1" d="M4.2,37"/>
	<path class="st2" d="M3,36.9c0,0-0.2-6.9,4.4-9s6.5,3.9,7,4.5c0.5,0.6,4.6,8.3,9-0.1S30.9,18,35.3,17.4s9.8,3,9.8,9.7
		s-1.2,9.7-1.2,9.7L3,36.9L3,36.9z"/>
	<circle class="st2" cx="14.6" cy="15.2" r="4.4"/>
	<polygon class="st2" points="17.8,44.5 4.3,43.7 3,36.9 43.9,36.9 44.4,43.3 	"/>
</g>
<g id="Layer_6">
</g>
</svg>
