<?xml version="1.0" encoding="utf-8"?>
<!-- Generator: Adobe Illustrator 23.0.2, SVG Export Plug-In . SVG Version: 6.00 Build 0)  -->
<svg version="1.1" id="Layer_1" xmlns="http://www.w3.org/2000/svg" xmlns:xlink="http://www.w3.org/1999/xlink" x="0px" y="0px"
	 viewBox="0 0 48 48" style="enable-background:new 0 0 48 48;" xml:space="preserve">
<style type="text/css">
	.st0{fill:#1D1D1B;}
	.st1{fill:none;stroke:#1D1D1B;stroke-width:2;stroke-miterlimit:10;}
	.st2{fill:none;stroke:#1D1D1B;stroke-width:3;stroke-linecap:round;stroke-miterlimit:10;}
</style>
<g id="Layer_5">
	<g>
		<path class="st0" d="M22.5,10.9h-6.3c-0.4,0-0.7,0.2-0.9,0.5l-3.1,5.4c-0.2,0.3-0.2,0.7,0,1l3.1,5.4c0.2,0.3,0.5,0.5,0.9,0.5h6.3
			c0.4,0,0.7-0.2,0.9-0.5l3.1-5.4c0.2-0.3,0.2-0.7,0-1l-3.1-5.4C23.2,11.1,22.9,10.9,22.5,10.9z"/>
		<path class="st0" d="M22.5,24.4h-6.3c-0.4,0-0.7,0.2-0.9,0.5l-3.1,5.4c-0.2,0.3-0.2,0.7,0,1l3.1,5.4c0.2,0.3,0.5,0.5,0.9,0.5h6.3
			c0.4,0,0.7-0.2,0.9-0.5l3.1-5.4c0.2-0.3,0.2-0.7,0-1l-3.1-5.4C23.2,24.6,22.9,24.4,22.5,24.4z"/>
		<g>
			<path class="st0" d="M34.9,31H28c-0.3,0-0.6-0.2-0.8-0.4l-3.5-6c-0.2-0.3-0.2-0.6,0-0.9l3.5-6c0.2-0.3,0.5-0.4,0.8-0.4h6.9
				c0.3,0,0.6,0.2,0.8,0.4l3.5,6c0.2,0.3,0.2,0.6,0,0.9l-3.5,6C35.5,30.8,35.2,31,34.9,31z M28.5,30.1h5.9c0.3,0,0.6-0.2,0.8-0.4
				l3-5.1c0.2-0.3,0.2-0.6,0-0.9l-3-5.1c-0.2-0.3-0.5-0.4-0.8-0.4h-5.9c-0.3,0-0.6,0.2-0.8,0.4l-3,5.1c-0.2,0.3-0.2,0.6,0,0.9l3,5.1
				C27.9,30,28.2,30.1,28.5,30.1z"/>
		</g>
	</g>
	<circle class="st1" cx="24.3" cy="24.1" r="17.2"/>
	<line class="st2" x1="36.9" y1="37" x2="43" y2="43.1"/>
</g>
</svg>
