<?xml version="1.0" encoding="utf-8"?>
<!-- Generator: Adobe Illustrator 23.0.2, SVG Export Plug-In . SVG Version: 6.00 Build 0)  -->
<svg version="1.1" id="Layer_1" xmlns="http://www.w3.org/2000/svg" xmlns:xlink="http://www.w3.org/1999/xlink" x="0px" y="0px"
	 viewBox="0 0 48 48" style="enable-background:new 0 0 48 48;" xml:space="preserve">
<style type="text/css">
	.st0{fill:#1D1D1B;}
</style>
<g id="Layer_5">
	<path class="st0" d="M16.4,24.5l15.5,0.1c1.1,0,1.6,1.2,0.8,2L25,33.9c-0.5,0.4-1.2,0.4-1.7,0l-7.8-7.4
		C14.8,25.7,15.3,24.5,16.4,24.5z"/>
	<path class="st0" d="M25.6,25.5h-3c-0.6,0-1-0.5-1-1v-8.7c0-0.6,0.5-1,1-1h3c0.6,0,1,0.4,1,1v8.7C26.6,25.1,26.2,25.5,25.6,25.5z"
		/>
	<path class="st0" d="M43.1,32.7H28.4L26,35c-0.5,0.5-1.2,0.8-1.9,0.8c-0.7,0-1.4-0.2-1.9-0.8l-2.4-2.3H5.1c-1.1,0-2,0.9-2,2v8.1
		c0,1.1,0.9,2,2,2h38c1.1,0,2-0.9,2-2v-8.1C45.1,33.6,44.2,32.7,43.1,32.7z M33.1,40.7c-1.1,0-2-0.9-2-2s0.9-2,2-2s2,0.9,2,2
		C35.1,39.8,34.2,40.7,33.1,40.7z M39.6,40.7c-1.1,0-2-0.9-2-2s0.9-2,2-2s2,0.9,2,2C41.6,39.8,40.7,40.7,39.6,40.7z"/>
</g>
</svg>
