<?xml version="1.0" encoding="utf-8"?>
<!-- Generator: Adobe Illustrator 23.0.2, SVG Export Plug-In . SVG Version: 6.00 Build 0)  -->
<svg version="1.1" id="Layer_1" xmlns="http://www.w3.org/2000/svg" xmlns:xlink="http://www.w3.org/1999/xlink" x="0px" y="0px"
	 viewBox="0 0 48 48" style="enable-background:new 0 0 48 48;" xml:space="preserve">
<style type="text/css">
	.st0{fill:none;stroke:#1D1D1B;stroke-width:3;stroke-miterlimit:10;}
	.st1{fill:#1D1D1B;}
</style>
<g id="Layer_3">
	
		<image style="display:none;overflow:visible;enable-background:new    ;" width="230" height="235" xlink:href="E1E7E754BCA14989.jpeg"  transform="matrix(0.1791 0 0 0.1791 3.5007 2.9515)">
	</image>
	<ellipse class="st0" cx="24" cy="23.9" rx="21.1" ry="11.6"/>
	<path class="st1" d="M29.4,20.9c-1.3,0-2.3-1-2.3-2.3c0-0.6,0.2-1.2,0.6-1.6c-1.1-0.6-2.4-1-3.7-1c-4.2,0-7.6,3.4-7.6,7.6
		s3.4,7.6,7.6,7.6c4.2,0,7.6-3.4,7.6-7.6c0-1.2-0.3-2.3-0.7-3.3C30.5,20.7,30,20.9,29.4,20.9z"/>
</g>
</svg>
