<?xml version="1.0" encoding="utf-8"?>
<!-- Generator: Adobe Illustrator 23.0.2, SVG Export Plug-In . SVG Version: 6.00 Build 0)  -->
<svg version="1.1" id="Layer_1" xmlns="http://www.w3.org/2000/svg" xmlns:xlink="http://www.w3.org/1999/xlink" x="0px" y="0px"
	 viewBox="0 0 48 48" style="enable-background:new 0 0 48 48;" xml:space="preserve">
<style type="text/css">
	.st0{fill:none;stroke:#1D1D1B;stroke-width:2;stroke-linecap:round;stroke-miterlimit:10;}
</style>
<g id="Layer_5">
	<path class="st0" d="M18.6,33.8c0,0,1.4-9.8,1.5-11.6c0.1-3.2,7.7-5.2,8.8-0.1c1.1,5.2,1,15-4.2,21.6"/>
	<path class="st0" d="M24.4,23.1c0,0,1.2,17.3-5.3,20.2"/>
	<path class="st0" d="M14.4,25.9c2.2,9.1-4.6,12.9-4.6,12.9"/>
	<path class="st0" d="M21.7,14.4c0,0-6.6,1.6-7.5,7.4"/>
	<path class="st0" d="M24.4,13.8c0,0,8.8-1.7,10.4,11.4s-3.7,17.6-3.7,17.6"/>
	<path class="st0" d="M35,13.5c5.5,6.1,4.8,12.4,4.9,14.9c0.1,3.1-1.1,9.3-2.1,11.2"/>
	<path class="st0" d="M9.7,19c1.5-4.8,7.1-8.1,9-9c1.3-0.6,4.5-1.4,7.9-0.9c0.7,0.1,1.4,0.2,2.1,0.4"/>
	<path class="st0" d="M6.8,33.9c0,0,4.1-4.1,2.7-11"/>
	<path class="st0" d="M3.4,24.5C3.4,13,12.7,3.7,24.2,3.7S45,13,45,24.5"/>
</g>
</svg>
