<?xml version="1.0" encoding="utf-8"?>
<!-- Generator: Adobe Illustrator 23.0.2, SVG Export Plug-In . SVG Version: 6.00 Build 0)  -->
<svg version="1.1" id="Layer_1" xmlns="http://www.w3.org/2000/svg" xmlns:xlink="http://www.w3.org/1999/xlink" x="0px" y="0px"
	 viewBox="0 0 48 48" style="enable-background:new 0 0 48 48;" xml:space="preserve">
<style type="text/css">
	.st0{display:none;fill:none;stroke:#1D1D1B;stroke-width:3;stroke-miterlimit:10;}
	.st1{fill:#1D1D1B;}
	.st2{fill:none;stroke:#1D1D1B;stroke-width:3;stroke-linecap:round;stroke-miterlimit:10;}
</style>
<g id="Layer_5">
	<path class="st0" d="M36.3,44.8H11.8c-1.4,0-2.5-1.1-2.5-2.5V11.6c0-1.4,1.1-2.5,2.5-2.5h24.5c1.4,0,2.5,1.1,2.5,2.5v30.7
		C38.8,43.6,37.7,44.8,36.3,44.8z"/>
	<circle class="st1" cx="12.6" cy="13.1" r="1.8"/>
	<line class="st2" x1="17.5" y1="13.1" x2="37.4" y2="13.1"/>
	<circle class="st1" cx="12.6" cy="20.1" r="1.8"/>
	<line class="st2" x1="17.5" y1="20.1" x2="37.4" y2="20.1"/>
	<circle class="st1" cx="12.6" cy="27.1" r="1.8"/>
	<line class="st2" x1="17.5" y1="27.1" x2="37.4" y2="27.1"/>
	<circle class="st1" cx="12.6" cy="34.7" r="1.8"/>
	<line class="st2" x1="17.5" y1="34.7" x2="37.4" y2="34.7"/>
</g>
</svg>
