<?xml version="1.0" encoding="utf-8"?>
<!-- Generator: Adobe Illustrator 23.0.2, SVG Export Plug-In . SVG Version: 6.00 Build 0)  -->
<svg version="1.1" id="Layer_1" xmlns="http://www.w3.org/2000/svg" xmlns:xlink="http://www.w3.org/1999/xlink" x="0px" y="0px"
	 viewBox="0 0 48 48" style="enable-background:new 0 0 48 48;" xml:space="preserve">
<style type="text/css">
	.st0{fill:#FFFFFF;}
	.st1{fill:#FFFFFF;stroke:#FFFFFF;stroke-width:4;stroke-miterlimit:10;}
</style>
<path class="st0" d="M36.8,21.1H12c-1.6,0-3,1.3-3,3v17.5c0,1.7,1.3,3,3,3h24.8c1.6,0,3-1.3,3-3V24.1C39.8,22.5,38.5,21.1,36.8,21.1
	z M26,35.1v3.1c0,0.9-0.7,1.6-1.6,1.6s-1.6-0.7-1.6-1.6v-3.1c-0.8-0.5-1.3-1.4-1.3-2.4c0-1.6,1.3-2.9,2.9-2.9s2.9,1.3,2.9,2.9
	C27.3,33.7,26.8,34.6,26,35.1z"/>
<path class="st1" d="M14.6,21.1c0-5.2,4.2-9.4,9.4-9.4s9.5,4.2,9.5,9.4"/>
</svg>
