<?xml version="1.0" encoding="utf-8"?>
<!-- Generator: Adobe Illustrator 23.0.2, SVG Export Plug-In . SVG Version: 6.00 Build 0)  -->
<svg version="1.1" id="Layer_1" xmlns="http://www.w3.org/2000/svg" xmlns:xlink="http://www.w3.org/1999/xlink" x="0px" y="0px"
	 viewBox="0 0 48 48" style="enable-background:new 0 0 48 48;" xml:space="preserve">
<style type="text/css">
	.st0{fill:#009245;}
	.st1{fill:#FFFFFF;}
	.st2{fill:none;stroke:#FFFFFF;stroke-width:4;stroke-miterlimit:10;}
</style>
<circle class="st0" cx="24" cy="24" r="24"/>
<path class="st1" d="M35.2,16.8H12.8c-1.5,0-2.7,1.2-2.7,2.7v15.9c0,1.5,1.2,2.7,2.7,2.7h22.5c1.5,0,2.7-1.2,2.7-2.7V19.5
	C38,18,36.7,16.8,35.2,16.8z M25.5,29.5v2.8c0,0.8-0.7,1.5-1.5,1.5s-1.5-0.7-1.5-1.5v-2.8c-0.7-0.5-1.2-1.3-1.2-2.2
	c0-1.5,1.2-2.7,2.7-2.7s2.7,1.2,2.7,2.7C26.7,28.2,26.2,29,25.5,29.5z"/>
<path class="st2" d="M15.2,16.8c0-4.7,3.8-8.6,8.6-8.6s8.6,3.8,8.6,8.6"/>
</svg>
