<?xml version="1.0" encoding="utf-8"?>
<!-- Generator: Adobe Illustrator 23.0.2, SVG Export Plug-In . SVG Version: 6.00 Build 0)  -->
<svg version="1.1" id="Layer_1" xmlns="http://www.w3.org/2000/svg" xmlns:xlink="http://www.w3.org/1999/xlink" x="0px" y="0px"
	 viewBox="0 0 48 48" style="enable-background:new 0 0 48 48;" xml:space="preserve">
<style type="text/css">
	.st0{display:none;}
	.st1{display:inline;fill:#444444;}
	.st2{fill:#3AAA35;}
	.st3{fill:#FFFFFF;}
	.st4{fill:none;stroke:#3AAA35;stroke-width:4;stroke-miterlimit:10;}
</style>
<g id="LOCK">
	<g class="st0">
		<path class="st1" d="M37.1,21.1h-2l0.3-0.7c2.7-6.3,0-13.2-6-16.2l-0.7-0.3c-5-2.2-10.9-0.5-14.3,3.9c-1,1.3-0.5,3.2,1.1,3.9l0,0
			c1.1,0.4,2.2,0.1,3-0.8c2-2.5,5.5-3.4,8.6-2c3.6,1.7,5.3,6,3.6,9.6l-1,2.6h-5.3h-0.7h-4.3h-2.6h-5h-0.7c-1.3,0-2.3,1-2.3,2.3V42
			c0,1.7,1,2.7,2.3,2.7h25.8c1.5,0,2.7-1.2,2.7-2.7V23.8C39.8,22.2,38.1,21.1,37.1,21.1z M26.2,33v5.6c0,0.7-0.7,1.3-1,1.3h-2.6
			c-0.5,0-1-0.4-1-1v-6c-0.8-0.8-1.1-1.5-1-2.9c0.2-1.5,1.6-2.8,3.2-2.8H24c1.5,0,3,1.2,3.1,2.8C27.3,31.5,27,32.3,26.2,33z"/>
	</g>
	<path class="st2" d="M36.8,44.6H12c-1.7,0-3-1.3-3-3V24.1c0-1.7,1.4-3,3-3h24.8c1.7,0,3,1.4,3,3v17.5
		C39.8,43.3,38.4,44.6,36.8,44.6z"/>
	<circle class="st3" cx="24.4" cy="32.7" r="2.9"/>
	<path class="st3" d="M24.4,39.8L24.4,39.8c-0.9,0-1.6-0.7-1.6-1.6v-3.8c0-0.9,0.7-1.6,1.6-1.6l0,0c0.9,0,1.6,0.7,1.6,1.6v3.8
		C26,39.1,25.3,39.8,24.4,39.8z"/>
	<path class="st4" d="M14.6,21.1c0-5.2,4.2-9.4,9.4-9.4s9.5,4.2,9.5,9.4"/>
</g>
</svg>
