<?xml version="1.0" encoding="utf-8"?>
<!-- Generator: Adobe Illustrator 23.0.2, SVG Export Plug-In . SVG Version: 6.00 Build 0)  -->
<svg version="1.1" id="Layer_1" xmlns="http://www.w3.org/2000/svg" xmlns:xlink="http://www.w3.org/1999/xlink" x="0px" y="0px"
	 viewBox="0 0 48 48" style="enable-background:new 0 0 48 48;" xml:space="preserve">
<style type="text/css">
	.st0{fill:#1D1D1B;}
</style>
<g id="Layer_5">
	<g>
		<rect x="3.1" y="17.9" class="st0" width="12.2" height="12"/>
		<rect x="33.3" y="17.9" class="st0" width="11.6" height="12"/>
		<rect x="18.4" y="2.9" class="st0" width="11.9" height="12"/>
		<rect x="18.4" y="17.9" class="st0" width="11.9" height="12"/>
		<rect x="18.4" y="32.9" class="st0" width="11.9" height="11.9"/>
		<path class="st0" d="M15.4,32.9H3.1v6.9c0,2.8,2.2,5,5,5h7.2V32.9z"/>
		<path class="st0" d="M33.3,32.9v11.9H40c2.8,0,5-2.2,5-5v-6.9H33.3z"/>
		<path class="st0" d="M33.3,14.9H45v-7c0-2.8-2.2-5-5-5h-6.6V14.9z"/>
		<path class="st0" d="M15.4,14.9v-12H8.1c-2.8,0-5,2.2-5,5v7L15.4,14.9L15.4,14.9z"/>
	</g>
</g>
</svg>
