<?xml version="1.0" encoding="utf-8"?>
<!-- Generator: Adobe Illustrator 23.0.2, SVG Export Plug-In . SVG Version: 6.00 Build 0)  -->
<svg version="1.1" id="Layer_1" xmlns="http://www.w3.org/2000/svg" xmlns:xlink="http://www.w3.org/1999/xlink" x="0px" y="0px"
	 viewBox="0 0 100 100" style="enable-background:new 0 0 100 100;" xml:space="preserve">
<style type="text/css">
	.st0{fill:none;stroke:#000000;stroke-width:4;}
</style>
<circle class="st0" cx="50.1" cy="52" r="41.4"/>
<path d="M35.5,71.9L35.5,71.9c-2.5,0-4.5-2-4.5-4.5V36.6c0-2.5,2-4.5,4.5-4.5l0,0c2.5,0,4.5,2,4.5,4.5v30.8
	C40,69.9,38,71.9,35.5,71.9z"/>
<path d="M62.5,71.9L62.5,71.9c-2.5,0-4.5-2-4.5-4.5V36.6c0-2.5,2-4.5,4.5-4.5l0,0c2.5,0,4.5,2,4.5,4.5v30.8
	C66.9,69.9,64.9,71.9,62.5,71.9z"/>
</svg>
