<?xml version="1.0" encoding="utf-8"?>
<!-- Generator: Adobe Illustrator 23.0.2, SVG Export Plug-In . SVG Version: 6.00 Build 0)  -->
<svg version="1.1" id="Layer_1" xmlns="http://www.w3.org/2000/svg" xmlns:xlink="http://www.w3.org/1999/xlink" x="0px" y="0px"
	 viewBox="0 0 48 48" style="enable-background:new 0 0 48 48;" xml:space="preserve">
<g id="Layer_3">
	<g>
		<g>
			<path d="M12.4,7.3c0.8,0,1.4,0.2,2,0.8c0.4,0.4,0.7,0.8,1.1,1.1c0.8,0.7,1.7,0.9,2.7,0.5c1-0.4,1.5-1.2,1.6-2.3
				c0-0.6,0-1.1,0-1.7c0.1-1.5,1.2-2.6,2.7-2.6c1,0,2.1,0,3.1,0c1.5,0,2.7,1.1,2.7,2.7c0,0.6,0,1.1,0,1.7c0,1.1,0.6,1.8,1.5,2.3
				c1,0.4,1.9,0.2,2.7-0.5c0.4-0.4,0.7-0.7,1.1-1.1c1.2-1.1,2.8-1.1,3.9,0c0.8,0.8,1.5,1.5,2.3,2.2c1.2,1.2,1.2,2.7,0,3.9
				c-0.3,0.4-0.7,0.7-1.1,1.1c-0.7,0.8-0.9,1.7-0.5,2.6c0.4,1,1.1,1.5,2.2,1.6c0.6,0,1.1,0,1.7,0c1.7,0,2.8,1.2,2.8,2.9c0,1,0,2,0,3
				c0,1.4-1,2.5-2.4,2.7c-0.6,0-1.2,0-1.8,0c-1.2,0-2,0.5-2.4,1.6c-0.4,1-0.2,2,0.6,2.8c0.3,0.3,0.7,0.7,1,1c1,1.1,1.1,2.7,0,3.7
				c-0.8,0.8-1.6,1.6-2.5,2.4c-1.1,1-2.7,1-3.8,0c-0.4-0.4-0.7-0.7-1.1-1.1c-0.8-0.7-1.7-0.9-2.7-0.5c-1,0.4-1.5,1.2-1.5,2.3
				c0,0.5,0,1,0,1.6c0,1.7-1.2,2.8-2.8,2.8c-1,0-2,0-2.9,0c-1.7,0-2.8-1.1-2.9-2.8c0-0.5,0-1,0-1.6c0-1.1-0.6-1.8-1.6-2.2
				s-1.9-0.2-2.7,0.5c-0.4,0.4-0.7,0.7-1.1,1.1c-1.1,1-2.7,1-3.8,0c-0.8-0.8-1.6-1.6-2.4-2.4c-1.1-1.1-1-2.7,0-3.7
				c0.4-0.4,0.8-0.8,1.1-1.1c0.7-0.7,0.9-1.6,0.6-2.5c-0.4-1-1.1-1.6-2.1-1.7c-0.6,0-1.1,0-1.7,0c-1.6,0-2.6-1-2.7-2.5
				c0-1.1,0-2.3,0-3.5c0.1-1.6,1.1-2.6,2.7-2.6c0.5,0,1,0,1.5,0c1.1,0,1.8-0.6,2.2-1.6c0.4-1,0.2-1.9-0.5-2.6
				c-0.4-0.4-0.8-0.8-1.1-1.1c-1-1.1-1.1-2.7,0-3.8c0.8-0.8,1.6-1.6,2.4-2.4C11.1,7.6,11.7,7.3,12.4,7.3z M32.7,23.9
				c0-4.8-3.9-8.7-8.6-8.7c-4.8,0-8.7,3.9-8.7,8.7c0,4.8,3.9,8.6,8.6,8.6C28.8,32.6,32.7,28.7,32.7,23.9z"/>
		</g>
	</g>
	<circle cx="24" cy="23.9" r="2.9"/>
</g>
</svg>
