<?xml version="1.0" encoding="utf-8"?>
<!-- Generator: Adobe Illustrator 23.0.2, SVG Export Plug-In . SVG Version: 6.00 Build 0)  -->
<svg version="1.1" id="Layer_1" xmlns="http://www.w3.org/2000/svg" xmlns:xlink="http://www.w3.org/1999/xlink" x="0px" y="0px"
	 viewBox="0 0 48 48" style="enable-background:new 0 0 48 48;" xml:space="preserve">
<style type="text/css">
	.st0{display:none;fill:#1D1D1B;}
	.st1{fill:#1D1D1B;}
	.st2{fill:#FFFFFF;}
</style>
<g id="Layer_3">
	<rect y="-0.4" class="st0" width="48" height="48"/>
	<path class="st1" d="M24.2,6.5C14.6,6.5,6.7,14.3,6.7,24s7.8,17.5,17.5,17.5S41.7,33.6,41.7,24S33.8,6.5,24.2,6.5z M13.3,19.4
		c-0.6,1.4-0.9,2.9-0.9,4.5c0,0.5-0.4,1-1,1s-1-0.5-1-1c0-1.8,0.4-3.6,1.1-5.3c0.2-0.5,0.8-0.8,1.3-0.5
		C13.2,18.3,13.5,18.9,13.3,19.4z M33.5,15.7c-0.4,0.4-1,0.4-1.4,0c-2.2-2.2-5.1-3.4-8.2-3.4s-6,1.2-8.2,3.4
		c-0.2,0.2-0.5,0.3-0.7,0.3s-0.5-0.1-0.7-0.3c-0.4-0.4-0.4-1,0-1.4c2.6-2.6,6-4,9.6-4s7,1.4,9.6,4C33.9,14.7,33.9,15.3,33.5,15.7z"
		/>
	<g>
		<path class="st2" d="M47.4,15.1c-0.5-1.3-1.9-2.8-5.4-3.2c0.2,1,0,2.1-0.6,3c2,0.2,3,0.9,3.2,1.4c0.4,0.9-0.4,3-3.9,5.9
			c-3.5,2.9-8.5,5.8-14.2,8.2s-11.3,3.8-15.9,4.1c-4.6,0.3-6.6-0.6-7-1.5c-0.2-0.5,0-1.5,1-2.9c-1.1-0.4-1.8-1.3-2-2.3
			c-2.3,2.9-2.3,5-1.8,6.3c0.7,1.6,2.6,3.4,7.9,3.4c0.6,0,1.3,0,2.1-0.1c4.8-0.4,10.8-1.9,16.8-4.3c6-2.5,11.3-5.5,15-8.6
			C48,20,48.2,16.9,47.4,15.1z"/>
	</g>
	<g>
		<path class="st1" d="M8.2,34.5C5.4,34.4,4,33.7,3.7,33c-0.3-0.7,0.1-2.1,2-4.1c-0.3-1.2-0.5-2.4-0.6-3.6c-4.7,4.2-4.9,7.1-4.2,8.8
			c0.7,1.6,2.6,3.4,7.9,3.4c0.6,0,1.2,0,1.8-0.1C9.7,36.5,8.9,35.6,8.2,34.5z"/>
		<path class="st1" d="M47.4,15.1c-0.7-1.7-2.8-3.7-9.1-3.4c0.8,0.9,1.5,1.9,2.1,3c2.6,0.1,3.9,0.9,4.2,1.5c0.3,0.7-0.2,2.1-2.1,4.2
			c0.2,1.2,0.4,2.4,0.4,3.6c0,0.1,0,0.1,0,0.2C48,19.9,48.2,16.8,47.4,15.1z"/>
	</g>
</g>
</svg>
