<?xml version="1.0" encoding="utf-8"?>
<!-- Generator: Adobe Illustrator 23.0.2, SVG Export Plug-In . SVG Version: 6.00 Build 0)  -->
<svg version="1.1" id="Layer_1" xmlns="http://www.w3.org/2000/svg" xmlns:xlink="http://www.w3.org/1999/xlink" x="0px" y="0px"
	 viewBox="0 0 48 48" style="enable-background:new 0 0 48 48;" xml:space="preserve">
<style type="text/css">
	.st0{fill:none;stroke:#1D1D1B;stroke-width:4;stroke-linecap:round;stroke-miterlimit:10;}
	.st1{fill:#1D1D1B;}
	.st2{fill:none;stroke:#000000;stroke-width:4;stroke-linecap:round;stroke-miterlimit:10;}
</style>
<g id="Layer_5">
	<path class="st0" d="M33,39.5c-2.6,1.5-5.7,2.4-8.9,2.4c-10,0-18-8.1-18-18S14.1,5.7,24,5.7c5.6,0,10.5,3.2,13.8,7.1"/>
	<path class="st1" d="M42.6,9.7l-9.9,6.1c-0.4,0.3-0.4,0.9,0,1.1l10.2,5.5c0.5,0.2,1-0.1,1-0.6l-0.3-11.6C43.6,9.7,43,9.4,42.6,9.7z
		"/>
</g>
<path class="st2" d="M24,11.1v14.2c0,1,0.8,1.9,1.9,1.9h7.3"/>
</svg>
