<?xml version="1.0" encoding="utf-8"?>
<!-- Generator: Adobe Illustrator 23.0.2, SVG Export Plug-In . SVG Version: 6.00 Build 0)  -->
<svg version="1.1" id="Layer_1" xmlns="http://www.w3.org/2000/svg" xmlns:xlink="http://www.w3.org/1999/xlink" x="0px" y="0px"
	 viewBox="0 0 48 48" style="enable-background:new 0 0 48 48;" xml:space="preserve">
<style type="text/css">
	.st0{fill:none;stroke:#1D1D1B;stroke-width:3;stroke-miterlimit:10;}
	.st1{fill:none;stroke:#1D1D1B;stroke-width:2;stroke-linecap:round;stroke-miterlimit:10;}
	.st2{fill:#1D1D1B;}
</style>
<g id="Layer_5">
	<path class="st0" d="M28,9.1H12.8c-1.9,0-3.5,1.6-3.5,3.5v28.7c0,1.9,1.6,3.5,3.5,3.5h22.5c1.9,0,3.5-1.6,3.5-3.5V19.2
		c0-0.3-0.1-0.5-0.3-0.7l-9.1-8.8C29.1,9.3,28.6,9.1,28,9.1z"/>
	<line class="st1" x1="16.9" y1="22.9" x2="31.2" y2="22.9"/>
	<line class="st1" x1="16.8" y1="30.1" x2="31.1" y2="30.1"/>
	<line class="st1" x1="16.9" y1="37.8" x2="31.2" y2="37.8"/>
	<path class="st2" d="M28.3,17.4v-7.3l9.1,9.3h-7.1C29.2,19.4,28.3,18.5,28.3,17.4z"/>
</g>
</svg>
