<?xml version="1.0" encoding="utf-8"?>
<!-- Generator: Adobe Illustrator 23.0.2, SVG Export Plug-In . SVG Version: 6.00 Build 0)  -->
<svg version="1.1" id="Layer_1" xmlns="http://www.w3.org/2000/svg" xmlns:xlink="http://www.w3.org/1999/xlink" x="0px" y="0px"
	 viewBox="0 0 48 48" style="enable-background:new 0 0 48 48;" xml:space="preserve">
<style type="text/css">
	.st0{display:none;fill:#FFFFFF;}
	.st1{fill:#0071BC;}
	.st2{fill:none;}
	.st3{fill:#FFFFFF;}
</style>
<g id="Layer_3">
	<path class="st0" d="M40.1,31.3c0.2,0.1,0.4,0,0.5-0.1c3.9-7.2,0-17.1-8-21.8S13.8,6.2,9.5,13.2c-0.1,0.2-0.1,0.4,0.1,0.5l11.9,6.9
		c0.4,0.2,0.6,0.8,0.4,1.2l-7.5,18.7L27,24.7c0.3-0.4,0.9-0.5,1.3-0.2L40.1,31.3z"/>
</g>
<g id="Layer_6">
	<g>
		<circle class="st1" cx="24.2" cy="23.8" r="20.8"/>
	</g>
</g>
<g id="Layer_3_1_">
	<line class="st2" x1="19.3" y1="13.8" x2="31.5" y2="13.8"/>
	<g>
		<line class="st2" x1="17.5" y1="18.3" x2="29.7" y2="18.3"/>
		<path class="st3" d="M35,17.6l-4.5,14c-0.7,2.1-2.7,3.5-4.9,3.5L14.9,35c-0.6,0-1.1-0.5-1.1-1.2c0-0.6,0.5-1.1,1.2-1.1l10.7,0.2
			c1.2,0,2.3-0.8,2.7-2L34,13.4c-0.4-0.5-1-0.9-1.8-0.9l-10.9-0.1c-1.9,0-3.5,1.2-4.1,2.9l-5.3,15.2c-1,2.9,1.1,5.8,4.2,5.8
			l11.2-0.1c1.9,0,3.5-1.2,4.1-3L35.3,21C35.7,19.9,35.6,18.7,35,17.6z M20.4,15.4h10.2c0.5,0,0.9,0.4,0.9,0.9
			c0,0.5-0.4,0.9-0.9,0.9H20.4c-0.5,0-0.9-0.4-0.9-0.9C19.5,15.8,19.9,15.4,20.4,15.4z M18.9,19.1h10.2c0.5,0,0.9,0.4,0.9,0.9
			s-0.4,0.9-0.9,0.9H18.9c-0.5,0-0.9-0.4-0.9-0.9S18.4,19.1,18.9,19.1z"/>
	</g>
</g>
</svg>
