<?xml version="1.0" encoding="utf-8"?>
<!-- Generator: Adobe Illustrator 23.0.2, SVG Export Plug-In . SVG Version: 6.00 Build 0)  -->
<svg version="1.1" id="Layer_1" xmlns="http://www.w3.org/2000/svg" xmlns:xlink="http://www.w3.org/1999/xlink" x="0px" y="0px"
	 viewBox="0 0 48 48" style="enable-background:new 0 0 48 48;" xml:space="preserve">
<style type="text/css">
	.st0{display:none;fill:#888888;}
	.st1{fill:none;stroke:#1D1D1B;stroke-width:4;stroke-miterlimit:10;}
	.st2{fill:none;stroke:#1D1D1B;stroke-width:5;stroke-linecap:round;stroke-miterlimit:10;}
</style>
<g id="Layer_5">
	<path class="st0" d="M33,29.3h-1.9l-0.7-0.6c2.3-2.7,3.8-6.2,3.8-10.1C34.2,10,27.3,3,18.7,3S3.2,10,3.2,18.6s6.9,15.5,15.5,15.5
		c3.8,0,7.4-1.4,10.1-3.8l0.6,0.7v1.9l11.9,11.9l3.6-3.6L33,29.3z M18.7,29.3c-5.9,0-10.7-4.8-10.7-10.7S12.7,7.8,18.7,7.8
		s10.7,4.8,10.7,10.7S24.6,29.3,18.7,29.3z"/>
	<circle class="st1" cx="18.7" cy="18.5" r="13.4"/>
	<line class="st2" x1="29.4" y1="29.2" x2="39.2" y2="38.9"/>
</g>
</svg>
