<?xml version="1.0" encoding="utf-8"?>
<!-- Generator: Adobe Illustrator 23.0.2, SVG Export Plug-In . SVG Version: 6.00 Build 0)  -->
<svg version="1.1" id="Layer_1" xmlns="http://www.w3.org/2000/svg" xmlns:xlink="http://www.w3.org/1999/xlink" x="0px" y="0px"
	 viewBox="0 0 48 48" style="enable-background:new 0 0 48 48;" xml:space="preserve">
<style type="text/css">
	.st0{fill:#1D1D1B;}
</style>
<g id="Layer_3">
	<circle class="st0" cx="11.5" cy="23.9" r="2.5"/>
	<circle class="st0" cx="36.5" cy="23.8" r="2.5"/>
	<circle class="st0" cx="15.2" cy="14.8" r="2.5"/>
	<circle class="st0" cx="24.1" cy="8.8" r="2.5"/>
	<circle class="st0" cx="15.4" cy="2.9" r="2.5"/>
	<circle class="st0" cx="32.7" cy="2.9" r="2.5"/>
	<circle class="st0" cx="24.1" cy="39.3" r="2.5"/>
	<circle class="st0" cx="15.4" cy="44.7" r="2.5"/>
	<circle class="st0" cx="33" cy="44.7" r="2.5"/>
	<circle class="st0" cx="15.2" cy="32.7" r="2.5"/>
	<circle class="st0" cx="33" cy="14.8" r="2.5"/>
	<circle class="st0" cx="33" cy="32.7" r="2.5"/>
	<g>
		<rect x="15.2" y="14.3" class="st0" width="17.8" height="1"/>
	</g>
	<g>
		<rect x="15.2" y="32.2" class="st0" width="17.8" height="1"/>
	</g>
	<g>
		<rect x="28.6" y="2.4" class="st0" width="4.2" height="1"/>
		<rect x="15.4" y="2.4" class="st0" width="12.8" height="1"/>
	</g>
	<g>
		<rect x="11.5" y="23.3" class="st0" width="3.9" height="1"/>
		<rect x="15.8" y="23.3" class="st0" width="20.7" height="1"/>
	</g>
	<g>
		<rect x="29.5" y="44.3" class="st0" width="3.3" height="1"/>
		<rect x="15.1" y="44.3" class="st0" width="13.9" height="1"/>
	</g>
</g>
</svg>
