<?xml version="1.0" encoding="utf-8"?>
<!-- Generator: Adobe Illustrator 23.0.2, SVG Export Plug-In . SVG Version: 6.00 Build 0)  -->
<svg version="1.1" id="Layer_1" xmlns="http://www.w3.org/2000/svg" xmlns:xlink="http://www.w3.org/1999/xlink" x="0px" y="0px"
	 viewBox="0 0 48 48" style="enable-background:new 0 0 48 48;" xml:space="preserve">
<style type="text/css">
	.st0{fill:none;stroke:#1D1D1B;stroke-width:2;stroke-miterlimit:10;}
	.st1{fill:#1D1D1B;}
	.st2{fill:none;stroke:#1D1D1B;stroke-width:2;stroke-linecap:round;stroke-miterlimit:10;}
	.st3{fill:none;stroke:#1D1D1B;stroke-width:3;stroke-linecap:round;stroke-miterlimit:10;}
</style>
<g id="Layer_5">
	<path class="st0" d="M34.4,31.4h-15c-1.4,0-2.5-1.1-2.5-2.5V9.8c0-1.4,1.1-2.5,2.5-2.5h14.9c1.4,0,2.5,1.1,2.5,2.5v19.1
		C36.9,30.2,35.7,31.4,34.4,31.4z"/>
	<path class="st0" d="M16.9,28.1h-1.5c-1.3,0-2.4-1.1-2.4-2.4V6.4C13,5.1,14.1,4,15.5,4h15.1C31.9,4,33,5.1,33,6.4v1.2"/>
	<path class="st0" d="M13,25.1h-1.4c-1.3,0-2.4-1.1-2.4-2.4V3.4c0-1.3,1.1-2.4,2.4-2.4h15.1c1.3,0,2.4,1.1,2.4,2.4V4"/>
	<circle class="st1" cx="20.8" cy="15.1" r="1.2"/>
	<line class="st2" x1="23.8" y1="15.1" x2="33.5" y2="15.1"/>
	<circle class="st1" cx="20.7" cy="19.9" r="1.2"/>
	<line class="st2" x1="23.7" y1="19.9" x2="33.3" y2="19.9"/>
	<circle class="st1" cx="20.8" cy="25.1" r="1.2"/>
	<line class="st2" x1="23.8" y1="25.1" x2="33.5" y2="25.1"/>
	<path class="st0" d="M42.9,44.8H5.1c-1.1,0-2-0.9-2-2v-6c0-1.1,0.9-2,2-2H43c1.1,0,2,0.9,2,2v6C45,43.9,44.1,44.8,42.9,44.8z"/>
	<line class="st3" x1="9.3" y1="38.7" x2="38.8" y2="38.6"/>
</g>
</svg>
