<?xml version="1.0" encoding="utf-8"?>
<!-- Generator: Adobe Illustrator 23.0.2, SVG Export Plug-In . SVG Version: 6.00 Build 0)  -->
<svg version="1.1" id="Layer_1" xmlns="http://www.w3.org/2000/svg" xmlns:xlink="http://www.w3.org/1999/xlink" x="0px" y="0px"
	 viewBox="0 0 48 48" style="enable-background:new 0 0 48 48;" xml:space="preserve">
<style type="text/css">
	.st0{fill:none;stroke:#1D1D1B;stroke-width:2;stroke-miterlimit:10;}
	.st1{fill:none;stroke:#1D1D1B;stroke-width:2;stroke-linecap:round;stroke-miterlimit:10;}
</style>
<g id="Layer_5">
	<path class="st0" d="M36.3,44.8H11.8c-1.4,0-2.5-1.1-2.5-2.5V11.6c0-1.4,1.1-2.5,2.5-2.5h24.5c1.4,0,2.5,1.1,2.5,2.5v30.7
		C38.8,43.6,37.7,44.8,36.3,44.8z"/>
	<path class="st0" d="M8.6,41.7c-1.4,0-2.5-1.1-2.5-2.5V8.5C6.1,7.1,7.2,6,8.6,6h24.5c1.4,0,2.5,1.1,2.5,2.5"/>
	<path class="st0" d="M5.5,38.7c-1.4,0-2.5-1.1-2.5-2.5V5.5C3,4.1,4.2,3,5.5,3H30c1.4,0,2.5,1.1,2.5,2.5"/>
	<path class="st1" d="M33.1,20.6"/>
	<path class="st1" d="M18.8,20.6"/>
	<path class="st1" d="M32.9,27.7"/>
	<path class="st1" d="M18.6,27.7"/>
	<path class="st1" d="M33.1,35.4"/>
	<path class="st1" d="M18.8,35.4"/>
</g>
<g>
	<g id="Layer_3">
		<g>
			<path d="M29.4,23.6c1.7,0,3,0.4,4.1,1.3s1.6,2,1.6,3.3c0,0.8-0.2,1.6-0.7,2.2c-0.4,0.6-1.1,1.1-1.9,1.5v0.2
				c1.3,0.3,2.3,0.9,3,1.7c0.7,0.9,1.1,1.8,1.1,3c0,1-0.3,1.9-0.8,2.7s-1.2,1.4-2.2,1.8c-0.9,0.4-2,0.6-3.3,0.6h-4.6
				c-1.7,0-3-1.4-3-3V25.7c0-1.2,0.9-2.1,2.1-2.1C24.8,23.6,29.4,23.6,29.4,23.6z M28.5,31.2c0.9,0,1.7-0.2,2.2-0.7
				c0.5-0.4,0.8-1.1,0.8-1.9c0-0.7-0.2-1.3-0.7-1.7c-0.5-0.4-1.2-0.6-2-0.6h-1.6c-0.5,0-1,0.4-1,1v2.9c0,0.5,0.4,1,1,1
				C27.2,31.2,28.5,31.2,28.5,31.2z M29.3,39.1c1.2,0,2.1-0.2,2.7-0.7c0.6-0.4,0.9-1.1,0.9-2c0-0.8-0.3-1.4-0.9-1.8
				c-0.6-0.4-1.4-0.7-2.4-0.7h-2.4c-0.5,0-1,0.4-1,1v3.2c0,0.5,0.4,1,1,1H29.3L29.3,39.1z"/>
		</g>
	</g>
</g>
</svg>
