<?xml version="1.0" encoding="utf-8"?>
<!-- Generator: Adobe Illustrator 23.0.2, SVG Export Plug-In . SVG Version: 6.00 Build 0)  -->
<svg version="1.1" id="Layer_1" xmlns="http://www.w3.org/2000/svg" xmlns:xlink="http://www.w3.org/1999/xlink" x="0px" y="0px"
	 viewBox="0 0 48 48" style="enable-background:new 0 0 48 48;" xml:space="preserve">
<style type="text/css">
	.st0{fill:#1D1D1B;}
</style>
<g id="Layer_3">
	<g>
		<path class="st0" d="M16.5,38.5h19.2c3.5,0,6.3-2.8,6.3-6.3s-2.8-6.3-6.3-6.3H16.5c-1.7,0-3.2,0.7-4.4,1.8l-0.6,0.6l0,0
			c-0.9,1.1-1.4,2.4-1.4,3.9C10.2,35.7,13,38.5,16.5,38.5z M14.6,31.2c0.8-0.3,1.8,0.1,2.1,0.9c0.3,0.8-0.1,1.8-0.9,2.1
			c-0.8,0.3-1.8-0.1-2.1-0.9C13.4,32.5,13.8,31.5,14.6,31.2z"/>
		<path class="st0" d="M23.6,14.9l-9.3,10.4c0.7-0.2,1.4-0.3,2.2-0.3h16.3l1.7-1.7c2.7-2.6,2.7-7,0-9.6l0,0c-2.6-2.7-7-2.7-9.6,0
			L23.6,14.9z"/>
		<path class="st0" d="M11.4,27l11.6-12.9V13c0-3.8-3-6.8-6.8-6.8l0,0c-3.8,0-6.8,3-6.8,6.8v17.7C9.6,29.3,10.4,28,11.4,27z"/>
	</g>
</g>
</svg>
