<?xml version="1.0" encoding="utf-8"?>
<!-- Generator: Adobe Illustrator 23.0.2, SVG Export Plug-In . SVG Version: 6.00 Build 0)  -->
<svg version="1.1" id="Layer_1" xmlns="http://www.w3.org/2000/svg" xmlns:xlink="http://www.w3.org/1999/xlink" x="0px" y="0px"
	 viewBox="0 0 48 48" style="enable-background:new 0 0 48 48;" xml:space="preserve">
<style type="text/css">
	.st0{fill:#1D1D1B;}
	.st1{fill:none;stroke:#1D1D1B;stroke-width:2.5;stroke-miterlimit:10;}
</style>
<g id="Layer_3">
	<g>
		<path class="st0" d="M36.3,6.1L13.4,29c0,0-0.1,0.1-0.1,0.1l-0.2,2.2c0,0.1,0,0.1,0.1,0.2l3.4,3.4c0,0,0.1,0.1,0.2,0.1l2.2-0.2
			c0,0,0.1,0,0.1-0.1l23-23c0.1-0.1,0.1-0.2,0-0.3L36.6,6C36.5,6,36.4,6,36.3,6.1z"/>
		<path class="st0" d="M12.9,32.4l-0.3,2.7c0,0.1,0.1,0.2,0.2,0.2l2.7-0.3c0.2,0,0.2-0.2,0.1-0.3l-2.4-2.4
			C13.2,32.2,12.9,32.3,12.9,32.4z"/>
		<path class="st0" d="M47.4,3.4l-2.8-2.8c-0.8-0.8-2-0.8-2.8,0L38,4.4c-0.1,0.1-0.1,0.2,0,0.3l5.4,5.3c0.1,0.1,0.2,0.1,0.3,0
			l3.7-3.7C48.2,5.5,48.2,4.2,47.4,3.4z"/>
	</g>
	<path class="st1" d="M33.8,44.8H7c-2.2,0-4-1.8-4-4V14c0-2.2,1.8-4,4-4h26.7c2.2,0,4,1.8,4,4v26.7C37.8,43,36,44.8,33.8,44.8z"/>
	<g>
		<path d="M10.4,25.8v-9.3c0-0.3-0.2-0.5-0.5-0.5H7.2c-0.3,0-0.5-0.2-0.5-0.5v-1.1c0-0.3,0.2-0.5,0.5-0.5H16c0.3,0,0.5,0.2,0.5,0.5
			v1.1c0,0.3-0.2,0.5-0.5,0.5h-2.7c-0.3,0-0.5,0.2-0.5,0.5v9.3c0,0.3-0.2,0.5-0.5,0.5h-1.5C10.6,26.3,10.4,26.1,10.4,25.8z"/>
	</g>
</g>
</svg>
