<?xml version="1.0" encoding="utf-8"?>
<!-- Generator: Adobe Illustrator 23.0.2, SVG Export Plug-In . SVG Version: 6.00 Build 0)  -->
<svg version="1.1" id="Layer_1" xmlns="http://www.w3.org/2000/svg" xmlns:xlink="http://www.w3.org/1999/xlink" x="0px" y="0px"
	 viewBox="0 0 48 48" style="enable-background:new 0 0 48 48;" xml:space="preserve">
<style type="text/css">
	.st0{fill:none;stroke:#000000;stroke-width:4;stroke-linecap:round;stroke-miterlimit:10;}
</style>
<path d="M36.8,21.1H12c-1.6,0-3,1.3-3,3v17.5c0,1.7,1.3,3,3,3h24.8c1.6,0,3-1.3,3-3V24.1C39.8,22.5,38.5,21.1,36.8,21.1z M26,35.1
	v3.1c0,0.9-0.7,1.6-1.6,1.6c-0.9,0-1.6-0.7-1.6-1.6v-3.1c-0.8-0.5-1.3-1.4-1.3-2.4c0-1.6,1.3-2.9,2.9-2.9s2.9,1.3,2.9,2.9
	C27.3,33.7,26.8,34.6,26,35.1z"/>
<path class="st0" d="M19.7,9.3c3.7-3.7,9.7-3.7,13.4,0s3.7,9.7,0,13.4"/>
</svg>
