<?xml version="1.0" encoding="utf-8"?>
<!-- Generator: Adobe Illustrator 23.0.2, SVG Export Plug-In . SVG Version: 6.00 Build 0)  -->
<svg version="1.1" id="Layer_1" xmlns="http://www.w3.org/2000/svg" xmlns:xlink="http://www.w3.org/1999/xlink" x="0px" y="0px"
	 viewBox="0 0 48 48" style="enable-background:new 0 0 48 48;" xml:space="preserve">
<style type="text/css">
	.st0{fill:#0071BC;}
	.st1{fill:#FFFFFF;}
	.st2{fill:none;stroke:#FFFFFF;stroke-width:4;stroke-linecap:round;stroke-miterlimit:10;}
</style>
<circle class="st0" cx="24" cy="24" r="24"/>
<path class="st1" d="M35.3,18.4H12.8c-1.5,0-2.7,1.2-2.7,2.7V37c0,1.5,1.2,2.7,2.7,2.7h22.5c1.5,0,2.7-1.2,2.7-2.7V21.1
	C38,19.6,36.8,18.4,35.3,18.4z M25.5,31.1v2.8c0,0.8-0.7,1.5-1.5,1.5s-1.5-0.7-1.5-1.5v-2.8c-0.7-0.5-1.2-1.3-1.2-2.2
	c0-1.5,1.2-2.7,2.7-2.7s2.7,1.2,2.7,2.7C26.7,29.8,26.2,30.6,25.5,31.1z"/>
<path class="st2" d="M19.8,7.6c3.3-3.3,8.8-3.3,12.1,0s3.3,8.8,0,12.1"/>
</svg>
