<?xml version="1.0" encoding="utf-8"?>
<!-- Generator: Adobe Illustrator 23.0.2, SVG Export Plug-In . SVG Version: 6.00 Build 0)  -->
<svg version="1.1" id="Layer_1" xmlns="http://www.w3.org/2000/svg" xmlns:xlink="http://www.w3.org/1999/xlink" x="0px" y="0px"
	 viewBox="0 0 48 48" style="enable-background:new 0 0 48 48;" xml:space="preserve">
<style type="text/css">
	.st0{fill:#444444;}
	.st1{fill:#FFFFFF;}
	.st2{fill:none;stroke:#444444;stroke-width:4;stroke-linecap:round;stroke-miterlimit:10;}
</style>
<g id="UNLOCK">
	<path class="st0" d="M36.8,44.6H12c-1.7,0-3-1.3-3-3V24.1c0-1.7,1.4-3,3-3h24.8c1.7,0,3,1.4,3,3v17.5
		C39.8,43.3,38.4,44.6,36.8,44.6z"/>
	<circle class="st1" cx="24.4" cy="32.7" r="2.9"/>
	<path class="st1" d="M24.4,39.8L24.4,39.8c-0.9,0-1.6-0.7-1.6-1.6v-3.8c0-0.9,0.7-1.6,1.6-1.6l0,0c0.9,0,1.6,0.7,1.6,1.6v3.8
		C26,39.1,25.3,39.8,24.4,39.8z"/>
	<path class="st2" d="M19.7,9.3c3.7-3.7,9.7-3.7,13.4,0s3.7,9.7,0,13.4"/>
</g>
</svg>
