<?xml version="1.0" encoding="utf-8"?>
<!-- Generator: Adobe Illustrator 23.0.2, SVG Export Plug-In . SVG Version: 6.00 Build 0)  -->
<svg version="1.1" id="Layer_1" xmlns="http://www.w3.org/2000/svg" xmlns:xlink="http://www.w3.org/1999/xlink" x="0px" y="0px"
	 viewBox="0 0 48 48" style="enable-background:new 0 0 48 48;" xml:space="preserve">
<style type="text/css">
	.st0{fill:#1D1D1B;}
	.st1{fill:none;stroke:#1D1D1B;stroke-width:2;stroke-miterlimit:10;}
</style>
<g id="Layer_5">
	<circle class="st0" cx="24.1" cy="13.2" r="8"/>
	<path class="st0" d="M29.9,41.5H18.1c-3,0-5.5-2.5-5.5-5.5v-8.1c0-3,2.5-5.5,5.5-5.5h11.8c3,0,5.5,2.5,5.5,5.5V36
		C35.4,39.1,32.9,41.5,29.9,41.5z"/>
	<path class="st1" d="M40.9,44.7H7.2c-2.2,0-4.1-1.8-4.1-4.1V7c0-2.2,1.8-4.1,4.1-4.1h33.7C43.1,2.9,45,4.7,45,7v33.7
		C45,42.9,43.1,44.7,40.9,44.7z"/>
</g>
</svg>
